<?xml version="1.0" standalone="no"?><!DOCTYPE svg PUBLIC "-//W3C//DTD SVG 1.1//EN" "http://www.w3.org/Graphics/SVG/1.1/DTD/svg11.dtd"><svg class="icon" width="200px" height="200.00px" viewBox="0 0 1024 1024" version="1.1" xmlns="http://www.w3.org/2000/svg"><path fill="#ffffff" d="M888.96 567.68L795.2 384C795.2 149.44 626.56 27.2 461.76 27.2A333.44 333.44 0 0 0 128 360.64a483.2 483.2 0 0 0 123.84 323.2v167.04a76.48 76.48 0 0 0 54.72 73.28l200.64 60.16a76.48 76.48 0 0 0 67.52-11.84c37.76-28.16 32-64 32-126.4a754.24 754.24 0 0 0 96 0 96 96 0 0 0 96-96v-132.8c28.48 0 117.76 3.84 90.24-49.6z m-224-187.52L384 615.04a9.6 9.6 0 0 1-15.68-9.92L416 423.36H291.84a9.6 9.6 0 0 1-6.08-16.96l281.28-234.88a9.6 9.6 0 0 1 15.68 9.92l-46.08 181.76h123.84a9.6 9.6 0 0 1 6.08 16.96z"  /></svg>