<?xml version="1.0" standalone="no"?><!DOCTYPE svg PUBLIC "-//W3C//DTD SVG 1.1//EN" "http://www.w3.org/Graphics/SVG/1.1/DTD/svg11.dtd"><svg class="icon" width="200px" height="200.00px" viewBox="0 0 1024 1024" version="1.1" xmlns="http://www.w3.org/2000/svg"><path fill="#ffffff" d="M753.8 512l75-75c66.8-66.8 66.8-175.1 0-241.8-66.8-66.8-175.1-66.8-241.8 0l-75 75-75-75c-66.8-66.8-175.1-66.8-241.8 0-66.8 66.8-66.8 175.1 0 241.8l75 75-75 75c-66.8 66.8-66.8 175.1 0 241.8 66.8 66.8 175.1 66.8 241.8 0l75-75 75 75c66.8 66.8 175.1 66.8 241.8 0 66.8-66.8 66.8-175.1 0-241.8l-75-75z" /></svg>