<?xml version="1.0" standalone="no"?><!DOCTYPE svg PUBLIC "-//W3C//DTD SVG 1.1//EN" "http://www.w3.org/Graphics/SVG/1.1/DTD/svg11.dtd"><svg class="icon" width="200px" height="200.00px" viewBox="0 0 1024 1024" version="1.1" xmlns="http://www.w3.org/2000/svg"><path fill="#ffffff" d="M928 896V480c0-70.4-57.6-128-128-128H608v544h-32V192c0-70.4-57.6-128-128-128H224c-70.4 0-128 57.6-128 128v704c-17.6 0-32 14.4-32 32s14.4 32 32 32h832c17.6 0 32-14.4 32-32s-14.4-32-32-32zM736 576c0-17.6 14.4-32 32-32s32 14.4 32 32v160c0 17.6-14.4 32-32 32s-32-14.4-32-32V576zM192 320c0-17.6 14.4-32 32-32h224c17.6 0 32 14.4 32 32s-14.4 32-32 32H224c-17.6 0-32-14.4-32-32z m0 192c0-17.6 14.4-32 32-32h224c17.6 0 32 14.4 32 32s-14.4 32-32 32H224c-17.6 0-32-14.4-32-32z m0 192c0-17.6 14.4-32 32-32h224c17.6 0 32 14.4 32 32s-14.4 32-32 32H224c-17.6 0-32-14.4-32-32z" /></svg>