<?xml version="1.0" standalone="no"?><!DOCTYPE svg PUBLIC "-//W3C//DTD SVG 1.1//EN" "http://www.w3.org/Graphics/SVG/1.1/DTD/svg11.dtd"><svg class="icon" width="200px" height="160.00px" viewBox="0 0 1280 1024" version="1.1" xmlns="http://www.w3.org/2000/svg"><path fill="#041536" d="M1232 384H960V48c0-26.52-21.48-48-48-48H624c-26.52 0-48 21.48-48 48v144h-128V32c0-17.68-14.32-32-32-32h-32c-17.68 0-32 14.32-32 32v160h-128V32c0-17.68-14.32-32-32-32H160c-17.68 0-32 14.32-32 32v160H48c-26.52 0-48 21.48-48 48v720c0 35.34 28.66 64 64 64h1152c35.34 0 64-28.66 64-64V432c0-26.52-21.5-48-48-48zM256 808c0 13.26-10.74 24-24 24H152c-13.26 0-24-10.74-24-24v-80c0-13.26 10.74-24 24-24h80c13.26 0 24 10.74 24 24v80z m0-192c0 13.26-10.74 24-24 24H152c-13.26 0-24-10.74-24-24v-80c0-13.26 10.74-24 24-24h80c13.26 0 24 10.74 24 24v80z m0-192c0 13.26-10.74 24-24 24H152c-13.26 0-24-10.74-24-24v-80c0-13.26 10.74-24 24-24h80c13.26 0 24 10.74 24 24v80z m256 384c0 13.26-10.74 24-24 24h-80c-13.26 0-24-10.74-24-24v-80c0-13.26 10.74-24 24-24h80c13.26 0 24 10.74 24 24v80z m0-192c0 13.26-10.74 24-24 24h-80c-13.26 0-24-10.74-24-24v-80c0-13.26 10.74-24 24-24h80c13.26 0 24 10.74 24 24v80z m0-192c0 13.26-10.74 24-24 24h-80c-13.26 0-24-10.74-24-24v-80c0-13.26 10.74-24 24-24h80c13.26 0 24 10.74 24 24v80z m320 192c0 13.26-10.74 24-24 24h-80c-13.26 0-24-10.74-24-24v-80c0-13.26 10.74-24 24-24h80c13.26 0 24 10.74 24 24v80z m0-192c0 13.26-10.74 24-24 24h-80c-13.26 0-24-10.74-24-24v-80c0-13.26 10.74-24 24-24h80c13.26 0 24 10.74 24 24v80z m0-192c0 13.26-10.74 24-24 24h-80c-13.26 0-24-10.74-24-24V152c0-13.26 10.74-24 24-24h80c13.26 0 24 10.74 24 24v80z m320 576c0 13.26-10.74 24-24 24h-80c-13.26 0-24-10.74-24-24v-80c0-13.26 10.74-24 24-24h80c13.26 0 24 10.74 24 24v80z m0-192c0 13.26-10.74 24-24 24h-80c-13.26 0-24-10.74-24-24v-80c0-13.26 10.74-24 24-24h80c13.26 0 24 10.74 24 24v80z" /></svg>