<?xml version="1.0" standalone="no"?><!DOCTYPE svg PUBLIC "-//W3C//DTD SVG 1.1//EN" "http://www.w3.org/Graphics/SVG/1.1/DTD/svg11.dtd"><svg class="icon" width="200px" height="200.00px" viewBox="0 0 1024 1024" version="1.1" xmlns="http://www.w3.org/2000/svg"><path fill="#ffffff" d="M279.2448 744.8576c0 0 233.8816-32.1024 333.7216-131.8912s131.8912-333.7216 131.8912-333.7216S510.9248 311.3472 411.136 411.136 279.2448 744.8576 279.2448 744.8576zM461.6704 461.568c41.8816-41.8816 122.112-71.68 190.9248-90.2144-18.4832 68.7104-48.384 149.504-90.112 191.0784-27.8016 27.904-73.0112 27.904-100.8128 0C433.7664 534.6304 433.7664 489.472 461.6704 461.568zM512.0512 20.48C240.5376 20.48 20.48 240.5376 20.48 512c0 271.5136 220.0576 491.5712 491.5712 491.5712 271.4112 0 491.52-220.0576 491.52-491.5712C1003.5712 240.5376 783.4624 20.48 512.0512 20.48zM512 901.12c-214.8864 0-389.12-174.1824-389.12-389.12 0-214.8864 174.1824-389.12 389.12-389.12 214.8864 0 389.1712 174.1824 389.1712 389.12C901.1712 726.8864 726.8864 901.12 512 901.12z" /></svg>