<?xml version="1.0" standalone="no"?><!DOCTYPE svg PUBLIC "-//W3C//DTD SVG 1.1//EN" "http://www.w3.org/Graphics/SVG/1.1/DTD/svg11.dtd"><svg class="icon" width="200px" height="200.00px" viewBox="0 0 1024 1024" version="1.1" xmlns="http://www.w3.org/2000/svg"><path fill="#ffffff" d="M409.6 238.933333c10.24 0 17.066667-6.826667 17.066667-17.066666V75.093333l105.813333 157.013334c3.413333 3.413333 6.826667 6.826667 13.653333 6.826666h3.413334c6.826667-3.413333 13.653333-10.24 13.653333-17.066666v-204.8c0-10.24-6.826667-17.066667-17.066667-17.066667s-17.066667 6.826667-17.066666 17.066667v146.773333L423.253333 6.826667c-3.413333-6.826667-10.24-6.826667-17.066666-6.826667-6.826667 3.413333-13.653333 10.24-13.653334 17.066667v204.8c0 10.24 6.826667 17.066667 17.066667 17.066666zM460.8 819.2h17.066667c27.306667 0 51.2 20.48 51.2 44.373333 0 10.24 6.826667 17.066667 17.066666 17.066667s17.066667-6.826667 17.066667-17.066667c0-44.373333-37.546667-78.506667-85.333333-78.506666h-17.066667c-37.546667 0-68.266667 27.306667-68.266667 64.853333 0 27.306667 20.48 51.2 47.786667 61.44l64.853333 20.48c13.653333 3.413333 23.893333 17.066667 23.893334 27.306667 0 17.066667-17.066667 30.72-34.133334 30.72H477.866667c-27.306667 0-51.2-20.48-51.2-44.373334 0-10.24-6.826667-17.066667-17.066667-17.066666s-17.066667 6.826667-17.066667 17.066666c0 44.373333 37.546667 78.506667 85.333334 78.506667h17.066666c37.546667 0 68.266667-27.306667 68.266667-64.853333 0-27.306667-20.48-51.2-47.786667-61.44l-64.853333-20.48c-13.653333-3.413333-23.893333-17.066667-23.893333-27.306667 0-17.066667 17.066667-30.72 34.133333-30.72zM157.013333 863.573333c-3.413333 6.826667-3.413333 13.653333 3.413334 20.48 3.413333 3.413333 6.826667 3.413333 10.24 3.413334 3.413333 0 6.826667 0 10.24-3.413334l416.426666-249.173333-204.8-204.8-235.52 433.493333zM863.573333 139.946667c-3.413333-3.413333-13.653333-3.413333-20.48 0L409.6 406.186667l204.8 204.8 249.173333-450.56c6.826667-6.826667 6.826667-13.653333 0-20.48z"  /></svg>