<?xml version="1.0" standalone="no"?><!DOCTYPE svg PUBLIC "-//W3C//DTD SVG 1.1//EN" "http://www.w3.org/Graphics/SVG/1.1/DTD/svg11.dtd"><svg class="icon" width="200px" height="200.00px" viewBox="0 0 1024 1024" version="1.1" xmlns="http://www.w3.org/2000/svg"><path fill="#ffffff" d="M896 704C896 720.213333 887.04 734.293333 873.386667 741.546667L536.32 930.986667C529.493333 936.106667 520.96 938.666667 512 938.666667 503.04 938.666667 494.506667 936.106667 487.68 930.986667L150.613333 741.546667C136.96 734.293333 128 720.213333 128 704L128 320C128 303.786667 136.96 289.706667 150.613333 282.453333L487.68 93.013333C494.506667 87.893333 503.04 85.333333 512 85.333333 520.96 85.333333 529.493333 87.893333 536.32 93.013333L873.386667 282.453333C887.04 289.706667 896 303.786667 896 320L896 704M234.666667 610.986667C211.2 597.333333 192 605.866667 192 629.333333 192 652.8 211.2 682.666667 234.666667 696.32 258.133333 709.546667 277.333333 701.013333 277.333333 677.546667 277.333333 654.08 258.133333 624.213333 234.666667 610.986667M234.666667 440.32C211.2 426.666667 192 435.2 192 458.666667 192 482.133333 211.2 512 234.666667 525.653333 258.133333 538.88 277.333333 530.346667 277.333333 506.88 277.333333 483.413333 258.133333 453.546667 234.666667 440.32M405.333333 707.413333C381.866667 694.186667 362.666667 702.293333 362.666667 725.333333 362.666667 749.653333 381.866667 779.52 405.333333 792.746667 428.8 805.973333 448 797.866667 448 774.4 448 750.506667 428.8 720.64 405.333333 707.413333M320 573.866667C296.533333 560.64 277.333333 568.746667 277.333333 592.213333 277.333333 615.68 296.533333 645.973333 320 659.2 343.466667 672.426667 362.666667 664.32 362.666667 640 362.666667 616.96 343.466667 587.093333 320 573.866667M405.333333 536.746667C381.866667 523.52 362.666667 531.626667 362.666667 554.666667 362.666667 578.986667 381.866667 608.853333 405.333333 622.08 428.8 635.306667 448 627.2 448 603.733333 448 579.84 428.8 549.973333 405.333333 536.746667M789.333333 610.986667C765.866667 624.213333 746.666667 654.08 746.666667 677.546667 746.666667 701.013333 765.866667 709.546667 789.333333 696.32 812.8 682.666667 832 652.8 832 629.333333 832 605.866667 812.8 597.333333 789.333333 610.986667M789.333333 440.32C765.866667 453.546667 746.666667 483.413333 746.666667 506.88 746.666667 530.346667 765.866667 538.88 789.333333 525.653333 812.8 512 832 482.133333 832 458.666667 832 435.2 812.8 426.666667 789.333333 440.32M618.666667 707.413333C595.2 720.64 576 750.506667 576 774.4 576 797.866667 595.2 805.973333 618.666667 792.746667 642.133333 779.52 661.333333 749.653333 661.333333 725.333333 661.333333 702.293333 642.133333 694.186667 618.666667 707.413333M618.666667 536.746667C595.2 549.973333 576 579.84 576 603.733333 576 627.2 595.2 635.306667 618.666667 622.08 642.133333 608.853333 661.333333 578.986667 661.333333 554.666667 661.333333 531.626667 642.133333 523.52 618.666667 536.746667M704 331.52C727.04 317.866667 729.173333 296.96 709.12 285.44 688.64 273.493333 653.226667 275.2 629.76 288.853333 606.293333 302.506667 604.16 323.413333 624.64 334.933333 644.693333 346.88 680.533333 345.173333 704 331.52M386.986667 345.6C410.026667 331.946667 412.586667 311.466667 392.106667 298.666667 371.626667 287.573333 336.213333 289.28 313.173333 302.933333 289.706667 317.013333 287.146667 337.493333 307.626667 349.44 328.106667 360.96 362.666667 359.68 386.986667 345.6M545.28 338.773333C568.746667 324.693333 570.88 304.213333 550.4 292.266667 530.346667 280.746667 494.506667 282.026667 471.466667 296.106667 448 309.76 445.866667 330.24 465.92 341.333333 486.4 354.133333 521.813333 352.426667 545.28 338.773333Z" /></svg>