<?xml version="1.0" standalone="no"?><!DOCTYPE svg PUBLIC "-//W3C//DTD SVG 1.1//EN" "http://www.w3.org/Graphics/SVG/1.1/DTD/svg11.dtd"><svg class="icon" width="200px" height="160.00px" viewBox="0 0 1280 1024" version="1.1" xmlns="http://www.w3.org/2000/svg"><path fill="#ffffff" d="M549.8 68.6c-56.2-56.2-147.4-56.2-203.6 0L68.6 346.2c-56.2 56.2-56.2 147.4 0 203.6l277.6 277.6c56.2 56.2 147.4 56.2 203.6 0l277.6-277.6c56.2-56.2 56.2-147.4 0-203.6L549.8 68.6zM400 448a48 48 0 1 1 96 0 48 48 0 1 1-96 0zM192 400a48 48 0 1 1 0 96 48 48 0 1 1 0-96z m256 352a48 48 0 1 1 0-96 48 48 0 1 1 0 96z m256-352a48 48 0 1 1 0 96 48 48 0 1 1 0-96z m-256-160a48 48 0 1 1 0-96 48 48 0 1 1 0 96z m192 656c0 70.6 57.4 128 128 128h384c70.6 0 128-57.4 128-128V512c0-70.6-57.4-128-128-128H923.4c23.2 72 6.2 154-50.8 211L640 827.6V896z m320-240a48 48 0 1 1 0 96 48 48 0 1 1 0-96z" /></svg>