<?xml version="1.0" standalone="no"?><!DOCTYPE svg PUBLIC "-//W3C//DTD SVG 1.1//EN" "http://www.w3.org/Graphics/SVG/1.1/DTD/svg11.dtd"><svg class="icon" width="200px" height="200.00px" viewBox="0 0 1024 1024" version="1.1" xmlns="http://www.w3.org/2000/svg"><path fill="#ffffff" d="M1024 704H512v-128H192V64h448v128h384l-128 256 128 256zM512 192h-192v256h192V192z m304.896 128H640v256h176.896l-64-128 64-128zM64 1024a64 64 0 0 1-64-64V64a64 64 0 0 1 64-64c35.392 0 64 28.608 64 64v896c0 35.392-28.608 64-64 64z"  /></svg>