<?xml version="1.0" standalone="no"?><!DOCTYPE svg PUBLIC "-//W3C//DTD SVG 1.1//EN" "http://www.w3.org/Graphics/SVG/1.1/DTD/svg11.dtd"><svg class="icon" width="200px" height="200.00px" viewBox="0 0 1024 1024" version="1.1" xmlns="http://www.w3.org/2000/svg"><path fill="#ffffff" d="M848.44430222 177.10648889m-87.40522667 0a87.40522667 87.40522667 0 1 0 174.81045334 0 87.40522667 87.40522667 0 1 0-174.81045334 0ZM657.74136889 90.66951111m-87.40522667 0a87.40522667 87.40522667 0 1 0 174.81045333 0 87.40522667 87.40522667 0 1 0-174.81045333 0ZM467.03729778 90.66951111m-87.40522667 0a87.40522667 87.40522667 0 1 0 174.81045334 0 87.40522667 87.40522667 0 1 0-174.81045334 0ZM224.78165333 173.61806222m-136.63232 0a136.63232 136.63232 0 1 0 273.26464 0 136.63232 136.63232 0 1 0-273.26464 0ZM598.24241778 255.59722667c-121.73767111 0-255.04654222-9.04533333-255.04654223 163.95832888 0 109.30517333 78.64775111 174.62499555 91.08821334 236.82844445 18.21809778 91.08821333-35.63406222 201.99651555 0 273.26350222 18.21809778 36.43505778 52.96696889 91.08821333 127.52327111 91.08821333 140.85802667 0 255.04654222-171.28220445 255.04654222-382.56981333s-77.75232-382.56867555-218.61148444-382.56867555z" /></svg>