<?xml version="1.0" standalone="no"?><!DOCTYPE svg PUBLIC "-//W3C//DTD SVG 1.1//EN" "http://www.w3.org/Graphics/SVG/1.1/DTD/svg11.dtd"><svg class="icon" width="200px" height="200.00px" viewBox="0 0 1024 1024" version="1.1" xmlns="http://www.w3.org/2000/svg"><path fill="#ffffff" d="M807.703 217.66m-76.821 0a76.821 76.821 0 1 0 153.642 0 76.821 76.821 0 1 0-153.642 0ZM640.093 141.69m-76.821 0a76.821 76.821 0 1 0 153.642 0 76.821 76.821 0 1 0-153.642 0ZM472.482 141.69m-76.821 0a76.821 76.821 0 1 0 153.642 0 76.821 76.821 0 1 0-153.642 0ZM259.562 214.594m-120.087 0a120.087 120.087 0 1 0 240.174 0 120.087 120.087 0 1 0-240.174 0ZM587.799 286.646c-106.996 0-224.162-7.95-224.162 144.104 0 96.069 69.124 153.479 80.058 208.15 16.012 80.058-31.319 177.536 0 240.173 16.012 32.023 46.553 80.058 112.081 80.058 123.801 0 224.162-150.541 224.162-336.243s-68.337-336.242-192.139-336.242z" /></svg>