<?xml version="1.0" standalone="no"?><!DOCTYPE svg PUBLIC "-//W3C//DTD SVG 1.1//EN" "http://www.w3.org/Graphics/SVG/1.1/DTD/svg11.dtd"><svg class="icon" width="200px" height="200.00px" viewBox="0 0 1024 1024" version="1.1" xmlns="http://www.w3.org/2000/svg"><path fill="#ffffff" d="M296.704 244.778667l42.581333-42.538667a7.765333 7.765333 0 0 0-4.565333-13.226667l-155.349333-18.304A7.765333 7.765333 0 0 0 170.666667 179.370667l18.346666 155.306666c0.768 6.4 8.618667 9.088 13.184 4.565334l42.368-42.368 129.706667 129.493333c2.986667 2.986667 7.936 2.986667 10.922667 0l41.130666-40.96a7.765333 7.765333 0 0 0 0-10.965333l-129.706666-129.664z m342.058667 181.589333c2.986667 2.986667 7.936 2.986667 10.965333 0l129.664-129.493333 42.368 42.368c4.565333 4.522667 12.373333 1.834667 13.226667-4.565334l18.304-155.221333a7.765333 7.765333 0 0 0-8.661334-8.618667l-155.306666 18.304a7.765333 7.765333 0 0 0-4.608 13.226667l42.581333 42.538667-129.664 129.408a7.765333 7.765333 0 0 0 0 10.965333l41.130667 41.088z m196.181333 262.954667a7.765333 7.765333 0 0 0-13.184-4.565334l-42.368 42.368-129.706667-129.536a7.808 7.808 0 0 0-10.922666 0l-41.130667 41.045334a7.765333 7.765333 0 0 0 0 10.965333l129.706667 129.621333-42.624 42.538667a7.765333 7.765333 0 0 0 4.565333 13.226667l155.349333 18.304a7.765333 7.765333 0 0 0 8.661334-8.618667l-18.346667-155.306667z m-449.706667-91.733334a7.808 7.808 0 0 0-10.965333 0l-129.664 129.536-42.368-42.368a7.765333 7.765333 0 0 0-13.226667 4.565334l-18.304 155.221333a7.765333 7.765333 0 0 0 8.661334 8.661333l155.306666-18.346666a7.765333 7.765333 0 0 0 4.608-13.226667l-42.581333-42.410667 129.664-129.536a7.765333 7.765333 0 0 0 0-10.965333l-41.130667-41.088z" /></svg>