<?xml version="1.0" standalone="no"?><!DOCTYPE svg PUBLIC "-//W3C//DTD SVG 1.1//EN" "http://www.w3.org/Graphics/SVG/1.1/DTD/svg11.dtd"><svg class="icon" width="200px" height="200.00px" viewBox="0 0 1024 1024" version="1.1" xmlns="http://www.w3.org/2000/svg"><path fill="#ffffff" d="M955.8 876.7L542.7 114.2C536.1 102.1 524 96 512 96s-24.1 6.1-30.7 18.2L68.2 876.7C55.7 899.9 72.5 928 98.9 928h826.2c26.4 0 43.2-28.1 30.7-51.3z m-807.7-12.9L512 192.1l363.9 671.7H148.1z"  /><path fill="#ffffff" d="M435.5 413.6l44.8 275c2.7 15.1 16.5 26.1 32.7 26.1s30-11.1 32.7-26.1l44.8-275c3.4-19.1-12.2-36.6-32.7-36.6h-89.6c-20.5 0-36.1 17.5-32.7 36.6zM513 758.3c-24.5 0-44.3 18.6-44.3 41.5s19.8 41.5 44.3 41.5 44.3-18.6 44.3-41.5-19.8-41.5-44.3-41.5z"  /></svg>