<?xml version="1.0" standalone="no"?><!DOCTYPE svg PUBLIC "-//W3C//DTD SVG 1.1//EN" "http://www.w3.org/Graphics/SVG/1.1/DTD/svg11.dtd"><svg class="icon" width="200px" height="200.00px" viewBox="0 0 1024 1024" version="1.1" xmlns="http://www.w3.org/2000/svg"><path fill="#ffffff" d="M768 64a64 64 0 0 1 64 64v32h60.448l4.96 0.16c32.736 2.272 59.904 26.816 62.4 58.976L960 224v64l-0.128 7.2a192.096 192.096 0 0 1-132.544 175.456 320.096 320.096 0 0 1-283.392 263.776A12.8 12.8 0 0 1 544 736v160h160a32 32 0 0 1 0 64h-192l-0.256-0.032L320 960a32 32 0 0 1 0-64l160-0.032V736l0.096-1.568a320.192 320.192 0 0 1-283.456-263.808 192.032 192.032 0 0 1-132.48-175.424L64 288V224c0-34.496 28.192-61.44 62.592-63.84L131.552 160H192V128a64 64 0 0 1 64-64h512z m-116.352 233.376a32 32 0 0 0-45.248 0l-181.024 181.024a32 32 0 1 0 45.248 45.248l181.024-181.024a32 32 0 0 0 0-45.248zM192 224H131.552c-2.016 0-3.008 0.448-3.36 0.32L128 224v64c0 47.36 25.728 88.736 64 110.88V224z m700.448 0H832l0.032 174.848a128 128 0 0 0 63.808-104.256L896 288V224l-0.192 0.32c-0.224 0.096-0.768-0.096-1.696-0.224L892.48 224z m-382.08-9.376a32 32 0 0 0-45.216 0l-90.528 90.528a32 32 0 0 0 45.248 45.248L510.4 259.84a32 32 0 0 0 0-45.248z" /></svg>