<?xml version="1.0" standalone="no"?><!DOCTYPE svg PUBLIC "-//W3C//DTD SVG 1.1//EN" "http://www.w3.org/Graphics/SVG/1.1/DTD/svg11.dtd"><svg class="icon" width="200px" height="160.00px" viewBox="0 0 1280 1024" version="1.1" xmlns="http://www.w3.org/2000/svg"><path fill="#ffffff" d="M1248.00568 896H32.00568c-17.68 0-32 14.32-32 32v64c0 17.68 14.32 32 32 32h1216c17.68 0 32-14.32 32-32v-64c0-17.68-14.32-32-32-32zM161.10568 682.54c12.56 13.68 30.2 21.44 48.66 21.42l261.08-0.36a131.24 131.24 0 0 0 59.28-14.24l581.92-295.3c53.48-27.14 101.42-65.88 134.04-116.62 36.62-56.96 40.6-98.18 26.14-127.3-14.42-29.14-49.48-50.54-116.5-54.9-59.7-3.88-119.08 11.84-172.56 38.96l-197.02 99.98-437.4-164.12a35.598 35.598 0 0 0-36-2.22L181.24568 134.58c-21.34 10.82-26.5 39.3-10.34 57.06l312.44 196.2-206.42 104.76-144.7-72.94a35.608 35.608 0 0 0-32.14 0.04L19.82568 460.44c-20.88 10.6-26.38 38.24-11.14 56.16l152.42 165.94z" /></svg>