<?xml version="1.0" standalone="no"?><!DOCTYPE svg PUBLIC "-//W3C//DTD SVG 1.1//EN" "http://www.w3.org/Graphics/SVG/1.1/DTD/svg11.dtd"><svg class="icon" width="200px" height="200.00px" viewBox="0 0 1024 1024" version="1.1" xmlns="http://www.w3.org/2000/svg"><path fill="#041536" d="M898.272 91.424q25.152 29.728 6.848 84.576t-61.728 98.272l-92 92 91.424 397.728q2.848 10.848-6.848 18.848l-73.152 54.848q-4 3.424-10.848 3.424-2.272 0-4-0.576-8.576-1.728-12-9.152l-159.424-290.272-148 148 30.272 110.848q2.848 9.728-4.576 17.728l-54.848 54.848q-5.152 5.152-13.152 5.152l-1.152 0q-8.576-1.152-13.728-7.424l-108-144-144-108q-6.272-4-7.424-13.152-0.576-7.424 5.152-14.272l54.848-55.424q5.152-5.152 13.152-5.152 3.424 0 4.576 0.576l110.848 30.272 148-148-290.272-159.424q-8-4.576-9.728-13.728-1.152-9.152 5.152-15.424l73.152-73.152q8-7.424 17.152-4.576l380 90.848 91.424-91.424q43.424-43.424 98.272-61.728t84.576 6.848z" /></svg>