<?xml version="1.0" standalone="no"?><!DOCTYPE svg PUBLIC "-//W3C//DTD SVG 1.1//EN" "http://www.w3.org/Graphics/SVG/1.1/DTD/svg11.dtd"><svg class="icon" width="200px" height="160.00px" viewBox="0 0 1280 1024" version="1.1" xmlns="http://www.w3.org/2000/svg"><path fill="#ffffff" d="M1247.998099 896.000195H31.999951c-17.679973 0-31.999951 14.319978-31.999951 31.999951v63.999903c0 17.679973 14.319978 31.999951 31.999951 31.999951h1215.998148c17.679973 0 31.999951-14.319978 31.999951-31.999951v-63.999903c0-17.679973-14.319978-31.999951-31.999951-31.999951zM89.619863 411.320933l177.47973 159.999757a125.213809 125.213809 0 0 0 50.939922 27.859957l575.199124 156.699761c52.959919 14.419978 109.119834 17.439973 161.999753 2.719996 59.33991-16.539975 86.879868-42.419935 94.499856-71.419891 7.659988-28.999956-3.459995-65.4199-46.739928-109.919832-38.559941-39.63994-88.699865-65.5799-141.659785-79.999879l-195.019702-53.119919L565.599138 60.441468c-3.019995-11.619982-11.899982-20.699968-23.319964-23.819964L412.099372 1.161558c-21.119968-5.759991-41.799936 10.639984-41.419937 32.87995l95.839854 328.4195-204.399688-55.679915-55.179916-135.759794c-3.859994-9.779985-12.019982-17.139974-22.039967-19.859969L105.439839 129.501363c-20.679968-5.639991-41.059937 9.999985-41.439936 31.759951l0.459999 203.55969c0.379999 17.819973 12.059982 34.679947 25.159961 46.499929z" /></svg>