<?xml version="1.0" standalone="no"?><!DOCTYPE svg PUBLIC "-//W3C//DTD SVG 1.1//EN" "http://www.w3.org/Graphics/SVG/1.1/DTD/svg11.dtd"><svg class="icon" width="200px" height="200.00px" viewBox="0 0 1024 1024" version="1.1" xmlns="http://www.w3.org/2000/svg"><path fill="#ffffff" d="M981.8 294.5c-26.5-45.8-64.1-86.7-111.9-121.6C773.8 102.7 646.7 64 512 64s-261.8 38.7-357.8 108.9c-47.8 34.9-85.4 75.9-111.9 121.6C14.2 343 0 394.6 0 448s14.2 105 42.2 153.5c26.5 45.8 64.1 86.7 111.9 121.6 56.1 41 122.8 71.3 195.5 89.3l137 137c7 7 16.2 10.5 25.5 10.5 9.2 0 18.4-3.5 25.5-10.5l137.1-137.1c72.5-18.1 139.1-48.3 195.2-89.2 47.8-34.9 85.4-75.9 111.9-121.6 28-48.5 42.2-100.1 42.2-153.5s-14.2-105-42.2-153.5z m-462.7 407c-19.9 0-36-16.1-36-36s16.1-36 36-36 36 16.1 36 36-16.1 36-36 36zM621.5 482c-18.3 19.7-41.1 33.9-66.3 41.7v33.8c0 19.9-16.1 36-36 36s-36-16.1-36-36v-96.7l33.2-2.6c41.4-3.2 73.8-38.2 73.8-79.8 0-44.1-35.9-80-80-80-36.5 0-68.3 24.6-77.4 59.8-5 19.2-24.6 30.8-43.9 25.8-19.2-5-30.8-24.6-25.8-43.9 17.4-67 77.9-113.7 147.1-113.7 83.8 0 152 68.2 152 152-0.1 38.6-14.5 75.4-40.7 103.6z" /></svg>