<?xml version="1.0" standalone="no"?><!DOCTYPE svg PUBLIC "-//W3C//DTD SVG 1.1//EN" "http://www.w3.org/Graphics/SVG/1.1/DTD/svg11.dtd"><svg class="icon" width="200px" height="200.00px" viewBox="0 0 1024 1024" version="1.1" xmlns="http://www.w3.org/2000/svg"><path fill="#ffffff" d="M761.6 938.666667c-6.4 0-12.8-2.133333-19.2-4.266667L512 812.8l-230.4 121.6c-14.933333 8.533333-32 6.4-44.8-4.266667-12.8-8.533333-19.2-25.6-17.066667-42.666666l44.8-256-185.6-181.333334c-10.666667-10.666667-14.933333-27.733333-10.666666-42.666666 4.266667-14.933333 19.2-27.733333 34.133333-29.866667l256-38.4L473.6 106.666667c6.4-12.8 21.333333-21.333333 38.4-21.333334s32 8.533333 38.4 23.466667L665.6 341.333333l256 38.4c17.066667 2.133333 29.866667 12.8 34.133333 29.866667 4.266667 14.933333 0 32-10.666666 42.666667l-185.6 181.333333 44.8 256c2.133333 17.066667-4.266667 32-17.066667 42.666667-8.533333 4.266667-17.066667 6.4-25.6 6.4zM512 721.066667c6.4 0 12.8 2.133333 19.2 4.266666l172.8 91.733334-32-192c-2.133333-12.8 2.133333-27.733333 12.8-38.4l140.8-136.533334-194.133333-27.733333c-14.933333-2.133333-25.6-10.666667-32-23.466667L512 224l-87.466667 174.933333c-6.4 12.8-19.2 21.333333-32 23.466667l-194.133333 27.733333 140.8 136.533334c10.666667 10.666667 14.933333 23.466667 12.8 38.4l-32 192 172.8-91.733334c6.4-2.133333 12.8-4.266667 19.2-4.266666z" /></svg>