<?xml version="1.0" standalone="no"?><!DOCTYPE svg PUBLIC "-//W3C//DTD SVG 1.1//EN" "http://www.w3.org/Graphics/SVG/1.1/DTD/svg11.dtd"><svg class="icon" width="200px" height="200.00px" viewBox="0 0 1024 1024" version="1.1" xmlns="http://www.w3.org/2000/svg"><path fill="#ffffff" d="M1024 710.4c0-94.4-76.8-171.2-171.2-171.2s-171.2 76.8-171.2 171.2c0 56 51.2 140.8 89.6 204.8H286.4c-20.8 0-43.2-8-59.2-25.6-20.8-20.8-30.4-51.2-20.8-81.6 8-33.6 46.4-64 89.6-64h166.4c46.4 0 89.6-17.6 120-51.2 46.4-46.4 64-115.2 38.4-179.2-20.8-64-89.6-110.4-161.6-110.4H243.2c43.2-64 97.6-158.4 97.6-212.8 0-94.4-76.8-171.2-171.2-171.2S0 96 0 190.4c0 76.8 97.6 222.4 128 264 4.8 17.6 20.8 33.6 43.2 33.6h286.4c38.4 0 72 20.8 81.6 56 12.8 33.6 4.8 68.8-20.8 89.6-17.6 17.6-38.4 25.6-59.2 25.6H289.6c-84.8 0-158.4 56-171.2 136-12.8 56 4.8 115.2 46.4 158.4 33.6 33.6 76.8 51.2 120 51.2h568c17.6 0 33.6-12.8 38.4-25.6 35.2-46.4 132.8-196.8 132.8-268.8zM171.2 104c46.4 0 84.8 38.4 84.8 84.8 0 30.4-38.4 102.4-84.8 171.2-46.4-68.8-84.8-145.6-84.8-171.2-1.6-46.4 36.8-84.8 84.8-84.8z m681.6 521.6c46.4 0 84.8 38.4 84.8 84.8 0 30.4-38.4 102.4-84.8 171.2C806.4 812.8 768 736 768 710.4c0-46.4 38.4-84.8 84.8-84.8zM809.6 697.6a43.2 43.2 0 1 0 86.4 0 43.2 43.2 0 1 0-86.4 0ZM128 177.6a43.2 43.2 0 1 0 86.4 0 43.2 43.2 0 1 0-86.4 0Z" /></svg>