<?xml version="1.0" standalone="no"?><!DOCTYPE svg PUBLIC "-//W3C//DTD SVG 1.1//EN" "http://www.w3.org/Graphics/SVG/1.1/DTD/svg11.dtd"><svg class="icon" width="200px" height="200.00px" viewBox="0 0 1024 1024" version="1.1" xmlns="http://www.w3.org/2000/svg"><path fill="#ffffff" d="M458.361905 355.961905c0-19.504762 4.87619-39.009524 14.628571-43.885715 9.752381-9.752381 19.504762-14.628571 39.009524-14.628571 14.628571 0 24.380952 4.87619 34.133333 9.752381 9.752381 9.752381 14.628571 19.504762 14.628572 34.133333 0 9.752381-4.87619 24.380952-14.628572 34.133334L487.619048 458.361905c-9.752381 9.752381-14.628571 19.504762-14.628572 29.257143 0 9.752381-4.87619 19.504762-4.87619 34.133333v48.761905h87.771428v-43.885715c0-14.628571 4.87619-24.380952 9.752381-34.133333l58.514286-78.019048c14.628571-19.504762 24.380952-43.885714 24.380952-73.142857 0-39.009524-14.628571-73.142857-43.885714-92.647619-29.257143-19.504762-58.514286-34.133333-97.523809-34.133333s-68.266667 14.628571-97.52381 34.133333c-24.380952 29.257143-39.009524 58.514286-39.009524 97.52381v24.380952h87.771429v-14.628571zM468.114286 604.647619h87.771428v82.895238H468.114286z"  /><path fill="#ffffff" d="M58.514286 53.638095v760.685715h287.695238l165.790476 151.161904 165.790476-151.161904h292.571429V53.638095H58.514286z m809.447619 663.161905h-229.180953l-126.780952 117.028571-126.780952-117.028571H156.038095V151.161905h711.92381v565.638095z"  /></svg>