<?xml version="1.0" standalone="no"?><!DOCTYPE svg PUBLIC "-//W3C//DTD SVG 1.1//EN" "http://www.w3.org/Graphics/SVG/1.1/DTD/svg11.dtd"><svg class="icon" width="200px" height="200.00px" viewBox="0 0 1024 1024" version="1.1" xmlns="http://www.w3.org/2000/svg"><path fill="#ffffff" d="M496.438071 980.347804c-62.223157 0-122.595152-12.190647-179.437765-36.233226-54.895261-23.217794-104.190991-56.45478-146.521075-98.783841-42.330084-42.330084-75.566046-91.626837-98.784864-146.523121C47.652811 641.965004 35.462165 581.593008 35.462165 519.368828c0-62.22418 12.190647-122.596176 36.233226-179.438789 23.218818-54.895261 56.45478-104.192014 98.784864-146.522098s91.626837-75.565023 146.521075-98.783841c56.842613-24.042579 117.214608-36.233226 179.437765-36.233226 62.22418 0 122.596176 12.190647 179.439812 36.233226 54.895261 23.218818 104.190991 56.453756 146.522098 98.783841 42.329061 42.330084 75.565023 91.626837 98.783841 146.522098 24.041556 56.842613 36.232203 117.214608 36.232203 179.438789 0 62.22418-12.190647 122.596176-36.232203 179.438789-23.218818 54.896284-56.45478 104.192014-98.783841 146.523121-42.330084 42.329061-91.626837 75.566046-146.522098 98.783841C619.034247 968.156134 558.662251 980.347804 496.438071 980.347804zM496.438071 93.183286c-234.998175 0-426.184519 191.186344-426.184519 426.185542S261.439896 945.555393 496.438071 945.555393c234.999199 0 426.185542-191.186344 426.185542-426.185542S731.43727 93.183286 496.438071 93.183286zM117.325637 609.642854c-1.231037-20.154016-2.650363-36.286438-4.257977-48.399313 10.616802 4.731768 20.072151 8.018627 28.367071 9.864672 8.293897 1.845021 15.570627 2.76702 21.829168 2.76702 8.245801 0 14.810311-1.206478 19.693528-3.618411 4.881171-2.412956 7.322779-5.984295 7.322779-10.717086 0-1.607614-0.237407-3.14462-0.712221-4.613064-0.474814-1.466398-1.375324-3.122107-2.701528-4.967128-1.328251-1.845021-3.224438-3.854794-5.688559-6.03239l-26.741038-23.277146c-6.258541-5.298679-10.617825-9.130961-13.085016-11.496845-5.025457-4.825912-8.937556-9.318226-11.734252-13.484106-2.798742-4.16281-4.837168-8.396227-6.116301-12.703323-1.279133-4.305049-1.918699-8.871041-1.918699-13.696953 0-5.770424 1.016143-11.426237 3.051499-16.9613 2.033309-5.536087 5.084808-10.716063 9.154497-15.541975 4.067642-4.825912 9.460466-8.988722 16.180518-12.490475 6.716982-3.498684 13.909801-5.89015 21.574365-7.167237 7.664563-1.277086 15.563464-1.916653 23.702841-1.916653 15.990183 0 33.401738 1.845021 52.231595 5.536087 0.283456 6.528694 0.615007 12.514012 0.99363 17.954931 0.376577 5.441942 1.277086 14.97404 2.696412 28.600385-8.707312-3.499707-16.655332-5.937223-23.845081-7.310499-7.191796-1.370207-13.389962-2.057869-18.593474-2.057869-7.380084 0-13.508665 1.373277-18.380626 4.115738-4.875031 2.745531-7.309476 6.152117-7.309476 10.219759 0 1.89414 0.376577 3.739161 1.134847 5.535063 0.756223 1.798972 2.175549 3.90289 4.257977 6.315846 2.080382 2.412956 4.825912 5.063319 8.232498 7.949043 3.406586 2.886747 8.751315 7.167237 16.038278 12.844539l10.218736 8.090259c3.02694 2.461051 6.291287 5.441942 9.794064 8.94165 3.499707 3.501754 6.528694 6.954389 9.083889 10.360975s4.517897 6.529717 5.89015 9.367345c1.370207 2.838651 2.388397 5.701862 3.051499 8.587586 0.661056 2.88777 0.99363 5.986341 0.99363 9.296737 0 8.515954-2.035356 16.630772-6.102998 24.342408-4.069689 7.712659-9.842159 14.051017-17.315364 19.019169-7.476275 4.967128-15.684214 8.445346-24.625864 10.431583-8.94165 1.987261-18.380626 2.980891-28.315906 2.980891C160.047648 616.313787 140.695904 614.090143 117.325637 609.642854zM322.847477 612.623745c4.700045-45.986357 7.520277-96.609315 8.460696-151.87092l-60.408835 1.560542 0.710175-15.754822c0.376577-8.420787 0.661056-17.646915 0.851391-27.677363 26.862811 0.191358 58.173934 0.286526 93.932346 0.286526l35.047214-0.14224 34.05563 0 18.445094-0.144286-0.852414 13.902638c-0.376577 7.455809-0.636496 13.619182-0.778736 18.49319-0.14224 4.875031-0.212848 8.55177-0.212848 11.035334-20.231787-1.039679-36.918841-1.560542-50.058093-1.560542l-9.927093 0c-1.428535 16.71673-2.523473 32.159444-3.28379 46.326095-1.048889 20.305465-1.858324 40.021505-2.430352 59.147098-0.572028 19.125593-0.855484 34.592866-0.855484 46.397726-15.508205-0.189312-25.532513-0.283456-30.069853-0.283456C351.402837 612.340289 340.529185 612.434433 322.847477 612.623745zM581.45435 415.19114c15.137769 0 29.710672 2.036379 43.715641 6.102998 14.003945 4.069689 26.258037 10.573823 36.761252 19.516496 10.504238 8.94165 18.356067 19.232017 23.561625 30.871101 5.202489 11.639085 7.80578 25.029046 7.80578 40.166815 0 15.897062-2.863211 30.493501-8.586562 43.787272-5.727445 13.295817-13.981433 24.579815-24.768103 33.851992-10.786671 9.274224-23.656793 16.062837-38.607296 20.366863-14.951527 4.305049-30.514991 6.459109-46.696532 6.459109-15.992229 0-31.320333-2.106987-45.986357-6.316869-14.668071-4.208858-27.417443-11.022031-38.251186-20.438495-10.835789-9.414417-18.522865-19.893072-23.064298-31.439036-4.541433-11.542894-6.813173-24.364921-6.813173-38.465057 0-20.721951 4.801353-38.912242 14.406105-54.573943 9.602705-15.659655 23.845081-27.89021 42.72201-36.690644C536.531208 419.591357 557.797557 415.19114 581.45435 415.19114zM578.899154 457.914174c-10.882861 0-20.722974 2.674922-29.522384 8.019651-8.800433 5.346775-15.566534 12.773931-20.297278 22.283516-4.732791 9.509585-7.097652 19.706831-7.097652 30.586622 0 10.031471 2.152013 19.209504 6.459109 27.535123 4.304026 8.328689 10.857279 14.832823 19.657712 19.516496s18.11866 7.024997 27.960819 7.024997c10.504238 0 20.131503-2.62478 28.884864-7.877411 8.751315-5.251607 15.421224-12.631692 20.012799-22.141276 4.588505-9.510608 6.884804-19.467377 6.884804-29.877471 0-10.124592-2.1295-19.467377-6.387477-28.03245-4.257977-8.563026-10.503215-15.2094-18.735713-19.941168C598.485235 460.280058 589.212034 457.914174 578.899154 457.914174zM716.575794 612.623745l2.819209-36.335556 3.665483-70.968331 1.551332-50.245358c0.093121-5.393847 0.14224-10.787694 0.14224-16.180518 0-4.067642-0.049119-10.738575-0.14224-20.012799 12.494569 0.283456 22.528086 0.425695 30.100552 0.425695 7.287987 0 17.272385-0.212848 29.957289-0.638543 12.68388-0.425695 23.428595-0.638543 32.232099-0.638543 12.68388 0 22.077831 0.805342 28.182876 2.412956 6.104021 1.609661 11.617595 4.140297 16.540721 7.592932 4.923126 3.454682 8.992815 7.500834 12.211113 12.135388 3.218298 4.6366 5.630231 9.91379 7.240915 15.82543 1.609661 5.91471 2.413979 11.9471 2.413979 18.09717 0 12.68081-3.076058 24.270776-9.226129 34.773991-6.152117 10.503215-14.810311 18.358113-25.974581 23.560602-11.165294 5.205559-23.702841 7.806803-37.612643 7.806803-5.109368 0-11.024078-0.567935-17.742083-1.702782-0.75827-4.352121-2.177596-10.833743-4.257977-19.445888-2.082428-8.609075-3.78521-14.995529-5.109368-19.161409 4.16281 0.851391 8.515954 1.278109 13.05841 1.278109 9.556657 0 16.677844-2.293229 21.361517-6.883781 4.683672-4.588505 7.024997-10.1952 7.024997-16.820084 0-3.216251-0.520863-6.078439-1.560542-8.587586-1.042749-2.506077-2.697435-4.563946-4.967128-6.173606-2.27174-1.607614-4.779863-2.648316-7.523347-3.123131-2.745531-0.471744-5.867638-0.709151-9.367345-0.709151-3.406586 0-6.954389 0.095167-10.644431 0.283456l-11.922541 0.851391c-1.216711 18.262946-2.153036 38.560224-2.809999 60.890812-1.216711 40.688701-1.824555 65.101717-1.824555 73.238025l0 18.451234-28.269857-0.283456C742.144122 612.340289 732.2948 612.434433 716.575794 612.623745z" /></svg>